<svg viewBox="0 0 600 94" xmlns="http://www.w3.org/2000/svg">
  <path fill="#f3efe7" d="M7 13 24 6l20 7 22-6 24 5 25-6 27 7 29-6 29 5 31-6 31 7 32-6 32 5 32-6 32 7 31-6 29 5 29-6 26 7 25-6 22 5 19-6 17 8-6 14 7 13-7 15 6 13-17 7-20-6-22 5-25-6-27 7-29-6-30 5-31-6-32 7-32-6-33 5-32-6-31 7-30-6-29 5-27-6-25 7-23-6-20 5-17-7-7-13 7-15-7-13Z"/>
  <path fill="#050505" d="M18 20 43 13l29 6 29-5 31 5 32-5 33 5 34-5 34 5 35-5 34 5 34-5 34 5 33-5 32 5 31-5 29 5 27-5 25 5 22-5 18 6-5 11 5 11-5 12 4 10-20 5-23-5-26 5-28-5-30 5-31-5-33 5-34-5-34 5-35-5-34 5-34-5-33 5-32-5-31 5-29-5-27 5-25-5-22 5-18-5-5-11 5-11-5-11Z"/>
</svg>
